<svg width="623" height="32" viewBox="0 0 623 32" fill="none" xmlns="http://www.w3.org/2000/svg">
<g opacity="0.1">
<rect y="16" width="8" height="16" fill="#3A6FF8"/>
<rect x="13" y="10" width="8" height="22" fill="#3A6FF8"/>
<rect x="26" width="8" height="32" fill="#3A6FF8"/>
<rect x="39" y="15" width="8" height="17" fill="#3A6FF8"/>
<rect x="52" y="22" width="8" height="10" fill="#3A6FF8"/>
<rect x="65" y="19" width="8" height="13" fill="#3A6FF8"/>
<rect x="78" y="8" width="8" height="24" fill="#3A6FF8"/>
<rect x="91" y="18" width="8" height="14" fill="#3A6FF8"/>
<rect x="104" y="24" width="8" height="8" fill="#3A6FF8"/>
<rect x="117" y="16" width="8" height="16" fill="#3A6FF8"/>
<rect x="130" y="10" width="8" height="22" fill="#3A6FF8"/>
<rect x="143" width="8" height="32" fill="#3A6FF8"/>
<rect x="156" y="15" width="8" height="17" fill="#3A6FF8"/>
<rect x="169" y="22" width="8" height="10" fill="#3A6FF8"/>
<rect x="182" y="18" width="8" height="14" fill="#3A6FF8"/>
<rect x="195" y="24" width="8" height="8" fill="#3A6FF8"/>
<rect x="208" width="8" height="32" fill="#3A6FF8"/>
<rect x="221" y="15" width="8" height="17" fill="#3A6FF8"/>
<rect x="234" y="22" width="8" height="10" fill="#3A6FF8"/>
<rect x="247" y="19" width="8" height="13" fill="#3A6FF8"/>
<rect x="260" y="8" width="8" height="24" fill="#3A6FF8"/>
<rect x="273" y="16" width="8" height="16" fill="#3A6FF8"/>
<rect x="286" y="18" width="8" height="14" fill="#3A6FF8"/>
<rect x="299" y="24" width="8" height="8" fill="#3A6FF8"/>
<rect x="312" width="8" height="32" fill="#3A6FF8"/>
<rect x="325" y="15" width="8" height="17" fill="#3A6FF8"/>
<rect x="338" y="22" width="8" height="10" fill="#3A6FF8"/>
<rect x="351" y="18" width="8" height="14" fill="#3A6FF8"/>
<rect x="364" y="24" width="8" height="8" fill="#3A6FF8"/>
<rect x="377" width="8" height="32" fill="#3A6FF8"/>
<rect x="390" y="15" width="8" height="17" fill="#3A6FF8"/>
<rect x="403" y="22" width="8" height="10" fill="#3A6FF8"/>
<rect x="416" y="8" width="8" height="24" fill="#3A6FF8"/>
<rect x="429" y="18" width="8" height="14" fill="#3A6FF8"/>
<rect x="442" y="24" width="8" height="8" fill="#3A6FF8"/>
<rect x="455" y="16" width="8" height="16" fill="#3A6FF8"/>
<rect x="468" y="10" width="8" height="22" fill="#3A6FF8"/>
<rect x="481" width="8" height="32" fill="#3A6FF8"/>
<rect x="494" y="15" width="8" height="17" fill="#3A6FF8"/>
<rect x="507" y="22" width="8" height="10" fill="#3A6FF8"/>
<rect x="520" y="18" width="8" height="14" fill="#3A6FF8"/>
<rect x="533" y="24" width="8" height="8" fill="#3A6FF8"/>
<rect x="546" y="10" width="8" height="22" fill="#3A6FF8"/>
<rect x="559" width="8" height="32" fill="#3A6FF8"/>
<rect x="572" y="15" width="8" height="17" fill="#3A6FF8"/>
<rect x="585" y="22" width="8" height="10" fill="#3A6FF8"/>
<rect x="598" y="10" width="8" height="22" fill="#3A6FF8"/>
<rect x="611" width="8" height="32" fill="#3A6FF8"/>
</g>
</svg>
