<svg width="32" height="32" viewBox="0 0 32 32" fill="none" xmlns="http://www.w3.org/2000/svg">
<path d="M19.9584 16.9995H18.9317H12.7051V20.7728H14.4517H19.9584C21.2251 20.7728 22.2651 19.9195 22.2651 18.8795C22.2651 17.8395 21.2251 16.9995 19.9584 16.9995Z" fill="#FFC01E"/>
<path d="M16.0003 2.66675C8.64033 2.66675 2.66699 8.64008 2.66699 16.0001C2.66699 23.3601 8.64033 29.3334 16.0003 29.3334C23.3603 29.3334 29.3337 23.3601 29.3337 16.0001C29.3337 8.64008 23.3603 2.66675 16.0003 2.66675ZM19.9603 22.7734H17.7603V24.6667C17.7603 25.2134 17.307 25.6667 16.7603 25.6667C16.2137 25.6667 15.7603 25.2134 15.7603 24.6667V22.7734H14.4537H14.147V24.6667C14.147 25.2134 13.6937 25.6667 13.147 25.6667C12.6003 25.6667 12.147 25.2134 12.147 24.6667V22.7734H11.707H9.40033C8.85366 22.7734 8.40033 22.3201 8.40033 21.7734C8.40033 21.2267 8.85366 20.7734 9.40033 20.7734H10.707V16.0001V11.2267H9.40033C8.85366 11.2267 8.40033 10.7734 8.40033 10.2267C8.40033 9.68008 8.85366 9.22675 9.40033 9.22675H11.707H12.147V7.33342C12.147 6.78675 12.6003 6.33342 13.147 6.33342C13.6937 6.33342 14.147 6.78675 14.147 7.33342V9.22675H14.4537H15.7603V7.33342C15.7603 6.78675 16.2137 6.33342 16.7603 6.33342C17.307 6.33342 17.7603 6.78675 17.7603 7.33342V9.22675H18.9337C21.0003 9.22675 22.827 11.0401 22.827 13.1201C22.827 14.0134 22.507 14.8267 22.0003 15.4934C23.347 16.1467 24.267 17.4268 24.267 18.9067C24.267 21.0268 22.3337 22.7734 19.9603 22.7734Z" fill="#FFC01E"/>
<path d="M20.8251 13.1068C20.8251 12.2268 19.9984 11.2135 18.9317 11.2135H14.4517H12.7051V14.9868H18.9317C19.9717 15.0002 20.8251 14.1468 20.8251 13.1068Z" fill="#FFC01E"/>
</svg>
